<svg width="60" height="60" viewBox="0 0 60 60" fill="none" xmlns="http://www.w3.org/2000/svg">
<rect width="60" height="60" rx="30" fill="#2BDE97"/>
<path d="M34.7359 24.1516L22.1766 36.7419L21.4155 38.5843L23.2579 37.8233L35.8482 25.2639L34.7359 24.1516ZM37.2489 21.6391L36.7048 22.1828L37.8171 23.295L38.3612 22.7509C38.504 22.608 38.5842 22.4143 38.5842 22.2123C38.5842 22.0103 38.504 21.8166 38.3612 21.6737L38.3266 21.6391C38.2558 21.5683 38.1718 21.5122 38.0794 21.4739C37.9869 21.4356 37.8878 21.4159 37.7877 21.4159C37.6877 21.4159 37.5886 21.4356 37.4961 21.4739C37.4037 21.5122 37.3197 21.5683 37.2489 21.6391Z" stroke="white" stroke-width="2.03069" stroke-linecap="round" stroke-linejoin="round"/>
</svg>
