<svg width="160" height="160" viewBox="0 0 65 65" fill="none" xmlns="http://www.w3.org/2000/svg">
<g clip-path="url(#clip0_486_4572)">
<path d="M2.35707 46.7213C7.57145 58.6622 20.5657 65.991 33.1641 64.8919C40.9231 64.2141 49.8048 61.1222 54.9775 56.6559C62.6818 50.0022 67.0966 37.8102 63.9998 24.5461C59.2412 4.16387 35.5108 -4.29091 17.9768 2.0873C2.64618 7.66351 -3.90435 32.3879 2.35707 46.7213Z" fill="#D4DFFF"/>
<path d="M46.1141 22.2861C43.1475 22.2861 43.1449 27.0657 46.1141 27.0657C49.0834 27.0657 49.0834 22.2861 46.1141 22.2861Z" fill="#1E1E54"/>
<path d="M24.2382 27.9569C27.2048 27.9569 27.21 23.1772 24.2382 23.1772C21.2663 23.1772 21.2689 27.9569 24.2382 27.9569Z" fill="#1E1E54"/>
<path d="M26.2699 19.6641C26.856 19.286 26.9497 18.665 26.6893 18.0601C25.848 16.1023 23.8711 14.4443 21.6207 15.0141C19.4589 15.5623 18.5838 17.8035 18.2765 19.7829C18.1827 20.3851 18.4301 21.0737 19.0943 21.2249C19.6543 21.3518 20.4357 21.0548 20.5346 20.4067C20.5971 20.0097 20.6649 19.6128 20.7664 19.2239C20.8211 19.0133 20.8889 18.8054 20.9618 18.6001C20.9696 18.5758 20.9748 18.5596 20.98 18.5488C20.9826 18.5434 20.9852 18.5407 20.9904 18.5299C21.0321 18.4489 21.0686 18.3652 21.1128 18.2869C21.1571 18.2059 21.204 18.1249 21.2561 18.0466C21.2665 18.0277 21.3238 17.9548 21.3499 17.9143C21.4332 17.817 21.5166 17.7198 21.6077 17.6334C21.6494 17.5929 21.7067 17.547 21.7249 17.5308C21.777 17.493 21.8317 17.4579 21.8864 17.4228C21.9411 17.3904 22.001 17.3634 22.0583 17.331C22.0896 17.3202 22.1234 17.3094 22.1547 17.2986C22.2328 17.2743 22.311 17.2635 22.3891 17.2419C22.1495 17.3067 22.4073 17.2473 22.4777 17.2446C22.5506 17.2446 22.6235 17.25 22.6938 17.2527C22.7355 17.2608 22.7746 17.2689 22.8136 17.2797C22.897 17.2986 22.9751 17.3256 23.0585 17.3499C23.0845 17.358 23.0975 17.3607 23.1106 17.3634C23.1236 17.3715 23.134 17.3769 23.1548 17.3877C23.246 17.4363 23.3346 17.4822 23.4231 17.5362C23.4361 17.5443 23.5013 17.5902 23.5455 17.6199C23.5846 17.655 23.6575 17.7117 23.6679 17.7225C23.7435 17.79 23.8138 17.863 23.8841 17.9359C23.9414 17.9953 23.9935 18.0601 24.0456 18.1222C24.0612 18.1438 24.0873 18.1789 24.1107 18.2113C24.3321 18.5326 24.5118 18.881 24.6655 19.2401C24.9077 19.8045 25.7829 19.9746 26.2699 19.6614V19.6641Z" fill="#1E1E54"/>
<path d="M45.3198 15.2678C45.3276 15.2913 45.3276 15.2965 45.3198 15.2678V15.2678Z" fill="#1E1E54"/>
<path d="M46.3408 14.3605C45.8798 14.1985 45.3432 14.185 44.8822 14.3551C44.3899 14.536 44.0123 14.8682 43.6763 15.2624C43.0902 15.951 42.5745 16.6963 42.1656 17.5037C41.8895 18.0492 42.0041 18.7999 42.585 19.1077C43.1189 19.3886 43.8925 19.2724 44.1894 18.6865C44.3457 18.3786 44.5149 18.0789 44.6999 17.7872C44.7936 17.6414 44.89 17.4983 44.989 17.3579C45.0307 17.2985 45.0749 17.2418 45.1166 17.1851C45.1218 17.1797 45.1218 17.177 45.1244 17.1743C45.1296 17.1662 45.1374 17.1581 45.1427 17.15C45.2494 17.0176 45.3588 16.8853 45.4734 16.7584C45.5151 16.7125 45.5568 16.6639 45.6037 16.6207C45.6141 16.6099 45.6193 16.6045 45.6271 16.5964C45.6401 16.5991 45.6532 16.6045 45.6662 16.6072C45.6818 16.6153 45.6948 16.6234 45.7105 16.6315C45.7261 16.6423 45.773 16.6639 45.8146 16.6882C45.8251 16.699 45.8407 16.7179 45.8719 16.7449C45.9292 16.7962 45.9813 16.8502 46.0334 16.9069C46.0803 16.9555 46.122 17.0095 46.1663 17.0609C46.1689 17.0663 46.1689 17.0663 46.1741 17.0744C46.2626 17.2094 46.3538 17.3417 46.4319 17.4848C46.471 17.555 46.5101 17.6279 46.5439 17.7008C46.5622 17.7359 46.5804 17.798 46.5908 17.8305C46.5856 17.8115 46.5752 17.7764 46.5595 17.7143C46.6012 17.8683 46.6742 18.0168 46.721 18.1734C46.7679 18.3273 46.8044 18.4866 46.833 18.646C46.8408 18.6946 46.8487 18.916 46.8487 18.7297C46.8487 18.5271 46.8565 18.8566 46.8591 18.8971C46.9007 19.5074 47.3696 20.0987 48.0311 20.069C48.6302 20.042 49.2475 19.5533 49.2032 18.8971C49.0834 17.1068 48.1509 15.0032 46.3408 14.3632V14.3605ZM45.5906 16.6072C45.5906 16.6072 45.6063 16.5991 45.6115 16.5937C45.6011 16.6018 45.5906 16.6099 45.5906 16.6072Z" fill="#1E1E54"/>
<path d="M37.4122 36.8355C32.9245 34.2351 28.1138 40.4837 25.9755 43.8294C24.7435 45.7575 23.7433 47.9312 23.6418 50.2427C23.5428 52.5542 24.4961 55.0142 26.4208 56.1835C28.4863 57.4392 31.2263 56.945 33.185 55.5219C35.1436 54.0961 36.4485 51.9007 37.4825 49.6622C39.1442 46.0599 42.0275 39.5116 37.4122 36.8382V36.8355Z" fill="#1E1E54"/>
<path d="M38.4725 29.3661C38.8892 27.8161 38.1781 26.4201 37.8031 25.6748C37.4202 24.9133 36.8863 24.2922 36.7378 24.1248C36.4591 23.8061 36.3211 23.6468 36.1257 23.5334C35.4303 23.1257 34.2739 23.1851 33.7165 23.952C33.4795 24.2787 33.2919 24.8107 33.443 25.2805C33.5654 25.664 33.8988 25.9421 34.4432 26.4066C34.6385 26.5713 34.8234 26.7495 34.9953 26.9385C35.05 26.9979 35.1021 27.0601 35.1516 27.1195C35.1568 27.1303 35.2636 27.2707 35.2792 27.295C35.347 27.403 35.4043 27.5164 35.472 27.6244C35.4902 27.6622 35.511 27.7027 35.5293 27.7405C35.5293 27.7405 35.5293 27.7405 35.5293 27.7459C35.5605 27.8432 35.5918 27.9404 35.6152 28.0376C35.6335 28.1078 35.6413 28.2131 35.6439 28.2374C35.6439 28.2644 35.6439 28.2914 35.6439 28.3184C35.6309 28.3778 35.61 28.5425 35.6074 28.5506C35.6022 28.583 35.5944 28.61 35.5918 28.629C35.5527 28.7127 35.511 28.791 35.4642 28.872C35.4563 28.8828 35.4537 28.8882 35.4485 28.8963C35.4381 28.9071 35.4303 28.9179 35.4173 28.9314C35.4173 28.9422 35.4121 28.953 35.4069 28.9611C35.373 28.98 35.3053 29.0178 35.261 29.0421C35.1959 29.0583 35.0969 29.088 35.0761 29.0907C34.2608 29.2581 33.8728 30.2195 34.0395 30.9837C34.227 31.8343 35.1047 32.2123 35.8653 32.0584C37.1519 31.7965 38.126 30.6434 38.4672 29.3688L38.4725 29.3661ZM35.4069 28.9692C35.3105 29.0421 35.373 29.0178 35.4069 28.9692V28.9692ZM36.0476 23.8034C36.0215 23.7791 36.0033 23.7629 36.0033 23.7602C36.0137 23.7494 36.032 23.771 36.0476 23.8034Z" fill="#1E1E54"/>
</g>
<defs>
<clipPath id="clip0_486_4572">
<rect width="160" height="160" fill="white"/>
</clipPath>
</defs>
</svg>
