<svg width="65" height="65" viewBox="0 0 65 65" fill="none" xmlns="http://www.w3.org/2000/svg">
<g clip-path="url(#clip0_486_4537)">
<path d="M2.35707 46.7213C7.57145 58.6622 20.5657 65.991 33.1641 64.8919C40.9231 64.2141 49.8048 61.1222 54.9775 56.6559C62.6818 50.0022 67.0966 37.8102 63.9998 24.5461C59.2412 4.16387 35.5108 -4.29091 17.9768 2.0873C2.64618 7.66351 -3.90435 32.3879 2.35707 46.7213Z" fill="#2BDE97"/>
<path d="M14.3825 29.3959C16.6198 29.0718 18.8728 28.9044 21.1309 28.8963C21.7638 28.8936 22.3447 28.2536 22.2952 27.5948C22.2405 26.8981 21.717 26.385 21.0398 26.3877C18.7816 26.3985 16.5286 26.5659 14.2913 26.8873C13.6662 26.9791 13.0723 27.4678 13.127 28.1888C13.1765 28.8099 13.7131 29.4931 14.3825 29.3959Z" fill="#1E1E54"/>
<path d="M51.4586 29.5876C51.6279 28.9962 51.3674 28.1456 50.7058 27.9944C48.2002 27.4165 45.6946 26.8386 43.189 26.2635C42.5743 26.1204 41.8502 26.3445 41.6523 27.0439C41.483 27.6353 41.7435 28.4859 42.405 28.6371C44.9106 29.215 47.4162 29.7928 49.9218 30.368C50.5365 30.5111 51.2606 30.287 51.4586 29.5876Z" fill="#1E1E54"/>
<path d="M32.3128 36.4707C32.3128 36.4707 32.3128 36.4707 32.3128 36.468C32.3101 36.4788 32.3074 36.4869 32.3047 36.495C32.3047 36.495 32.3047 36.495 32.3047 36.4977C32.3047 36.4923 32.3074 36.4869 32.3101 36.4788C32.3101 36.4734 32.3101 36.4734 32.3101 36.468L32.3128 36.4707Z" fill="#1E1E54"/>
<path d="M46.5987 41.7094C45.9085 41.5123 45.3537 41.9551 45.1089 42.5843C44.3978 44.4259 42.3454 45.6168 40.3737 45.1658C39.2459 44.9066 38.5479 44.2882 37.7301 43.5186C36.8211 42.6653 35.8496 41.8822 34.5863 41.7553C33.1825 41.6176 31.8958 42.479 30.7811 43.2513C29.708 43.9966 28.6349 44.8607 27.343 45.1361C26.309 45.3576 25.5328 44.993 24.8374 44.3017C24.0196 43.4916 23.3189 42.5492 22.3292 41.9497C20.0085 40.5428 16.8856 41.4394 15.4661 43.7563C14.63 45.1226 16.7215 46.3837 17.555 45.0227C17.7425 44.7149 18.0238 44.4313 18.3207 44.2423C18.5421 44.1019 18.7375 44.0101 18.8651 43.9669C18.9484 43.9372 19.0318 43.9129 19.1177 43.8886C19.1672 43.8751 19.6022 43.7887 19.4433 43.8103C19.9851 43.7401 20.2247 43.7698 20.6779 43.9156C21.0269 44.029 21.3967 44.2882 21.7301 44.6096C22.5766 45.4197 23.2772 46.3864 24.2696 47.021C25.4807 47.796 26.9653 47.8689 28.3145 47.4746C29.622 47.0885 30.7394 46.3054 31.8541 45.5277C32.3985 45.1469 32.9559 44.7365 33.5601 44.4556C33.7711 44.3584 33.9951 44.272 34.2269 44.2531C34.4014 44.2396 34.6593 44.2936 34.7478 44.3314C35.6386 44.7149 36.2715 45.5871 37.0581 46.2298C38.1624 47.1317 39.4465 47.6447 40.8504 47.7528C43.7883 47.9796 46.3825 46.0164 47.4478 43.254C47.69 42.6248 47.1821 41.8768 46.6039 41.7094H46.5987Z" fill="#1E1E54"/>
<path d="M31.5208 38.677C32.2787 38.831 33.159 38.4529 33.3466 37.6023C33.5133 36.8408 33.1252 35.8768 32.3099 35.7094C32.2891 35.704 32.1901 35.677 32.125 35.6608C32.0807 35.6338 32.013 35.5986 31.9792 35.5797C31.974 35.5689 31.9687 35.5608 31.9687 35.55C31.9557 35.5338 31.9479 35.5257 31.9375 35.5149C31.9323 35.5068 31.9297 35.5014 31.9219 35.4906C31.8776 35.4123 31.8333 35.3313 31.7942 35.2476C31.789 35.2287 31.7838 35.2017 31.7786 35.1693C31.7786 35.1612 31.7552 34.9965 31.7421 34.9371C31.7421 34.9101 31.7421 34.8831 31.7421 34.8561C31.7421 34.8318 31.7526 34.7291 31.7708 34.6562C31.7942 34.5563 31.8229 34.4591 31.8567 34.3646C31.8567 34.3646 31.8567 34.3619 31.8567 34.3592C31.875 34.3214 31.8958 34.2809 31.914 34.2431C31.9792 34.1351 32.0365 34.0216 32.1068 33.9136C32.1224 33.8893 32.2292 33.7489 32.2344 33.7381C32.2865 33.676 32.3386 33.6166 32.3907 33.5572C32.5626 33.3682 32.7501 33.1926 32.9429 33.0252C33.4872 32.5608 33.8206 32.2826 33.943 31.8992C34.0941 31.4293 33.9066 30.8973 33.6695 30.5706C33.1122 29.8037 31.9557 29.7443 31.2603 30.1521C31.065 30.2655 30.9269 30.4248 30.6482 30.7434C30.5024 30.9109 29.9658 31.5319 29.5829 32.2934C29.2079 33.0387 28.4968 34.4348 28.9136 35.9848C29.2548 37.2594 30.2289 38.4124 31.5155 38.6743L31.5208 38.677ZM31.9844 35.5878C32.0182 35.6365 32.0807 35.6608 31.9844 35.5878V35.5878ZM31.3879 30.3789C31.3879 30.3789 31.3697 30.3978 31.3436 30.4221C31.3593 30.3897 31.3775 30.3708 31.3879 30.3789Z" fill="#1E1E54"/>
</g>
<defs>
<clipPath id="clip0_486_4537">
<rect width="65" height="65" fill="white"/>
</clipPath>
</defs>
</svg>
