<svg width="50" height="50" viewBox="0 0 50 50" fill="none" xmlns="http://www.w3.org/2000/svg">
<g clip-path="url(#clip0_1021_14327)">
<path d="M1.81351 35.9396C5.82456 45.1249 15.8202 50.7624 25.5112 49.917C31.4797 49.3956 38.3117 47.0172 42.2907 43.5816C48.2172 38.4634 51.6132 29.0849 49.231 18.8817C45.5705 3.20309 27.3164 -3.30059 13.8287 1.60573C2.0359 5.89512 -3.00297 24.9139 1.81351 35.9396Z" fill="#F9C2AA"/>
<path d="M22.6759 27.3587C23.259 27.4771 23.9362 27.1862 24.0804 26.5319C24.2086 25.9462 23.9101 25.2046 23.283 25.0758C23.267 25.0717 23.1908 25.0509 23.1408 25.0384C23.1067 25.0177 23.0546 24.9907 23.0286 24.9761C23.0245 24.9678 23.0205 24.9616 23.0205 24.9533C23.0105 24.9408 23.0045 24.9346 22.9965 24.9263C22.9925 24.92 22.9905 24.9159 22.9845 24.9076C22.9504 24.8473 22.9164 24.785 22.8863 24.7206C22.8823 24.7061 22.8783 24.6853 22.8743 24.6604C22.8743 24.6542 22.8563 24.5274 22.8462 24.4817C22.8462 24.461 22.8462 24.4402 22.8462 24.4194C22.8462 24.4007 22.8542 24.3218 22.8683 24.2657C22.8863 24.1889 22.9083 24.1141 22.9344 24.0414C22.9344 24.0414 22.9344 24.0393 22.9344 24.0372C22.9484 24.0082 22.9644 23.977 22.9785 23.9479C23.0286 23.8648 23.0726 23.7776 23.1267 23.6945C23.1387 23.6758 23.2209 23.5678 23.2249 23.5595C23.265 23.5117 23.305 23.466 23.3451 23.4203C23.4773 23.2749 23.6216 23.1399 23.7699 23.0111C24.1886 22.6538 24.445 22.4399 24.5392 22.1449C24.6554 21.7835 24.5112 21.3743 24.3288 21.1229C23.9001 20.533 23.0105 20.4873 22.4756 20.801C22.3253 20.8882 22.2191 21.0108 22.0048 21.2559C21.8926 21.3847 21.4798 21.8624 21.1853 22.4482C20.8968 23.0215 20.3498 24.0954 20.6704 25.2877C20.9329 26.2681 21.6822 27.1551 22.6719 27.3566L22.6759 27.3587ZM23.0326 24.9824C23.0586 25.0197 23.1067 25.0384 23.0326 24.9824V24.9824ZM22.5738 20.9755C22.5738 20.9755 22.5597 20.99 22.5397 21.0087C22.5517 20.9838 22.5657 20.9692 22.5738 20.9755Z" fill="#1E1E54"/>
<path d="M17.5206 24.7125C17.8152 24.6128 18.0696 24.4424 18.286 24.2036C18.5184 23.9792 18.6827 23.7154 18.7769 23.4101C18.9251 23.1172 18.9932 22.7994 18.9812 22.4608C18.9532 22.2427 18.9251 22.0246 18.8971 21.8044C18.7849 21.3869 18.5805 21.0234 18.286 20.716C18.1257 20.5872 17.9654 20.4584 17.8051 20.3296C17.4345 20.1073 17.0338 19.9952 16.605 19.9931H16.4708C16.1442 19.9806 15.8377 20.0513 15.5552 20.205C15.2607 20.3047 15.0062 20.475 14.7898 20.7139C14.5574 20.9382 14.3931 21.202 14.299 21.5074C14.1507 21.8003 14.0826 22.1181 14.0946 22.4566C14.1227 22.6748 14.1507 22.8929 14.1788 23.113C14.291 23.5306 14.4953 23.8941 14.7898 24.2015C14.9501 24.3303 15.1104 24.4591 15.2707 24.5878C15.6413 24.8101 16.042 24.9223 16.4708 24.9243H16.605C16.9316 24.9368 17.2381 24.8662 17.5206 24.7125Z" fill="#1E1E54"/>
<path d="M31.0949 19.2017C29.8728 19.2017 28.7007 20.3171 28.7568 21.6257C28.8129 22.9385 29.7846 24.0498 31.0949 24.0498C32.3171 24.0498 33.4891 22.9344 33.433 21.6257C33.3769 20.313 32.4052 19.2017 31.0949 19.2017Z" fill="#1E1E54"/>
<path d="M35.0737 14.721C34.8393 14.4987 34.4927 14.2868 34.1621 14.3284C33.6832 14.3907 33.2044 14.3928 32.7255 14.3408C32.2888 14.2661 31.864 14.1456 31.4513 13.9794C31.1949 13.8569 30.9464 13.7218 30.706 13.5661C30.133 13.1942 29.2594 13.4207 28.9409 14.0459C28.6063 14.7044 28.7926 15.4791 29.4037 15.8759C30.7941 16.7795 32.5292 17.2136 34.1621 17.0017C34.5167 16.956 34.8112 16.8833 35.0737 16.6091C35.2981 16.3765 35.4664 15.9964 35.4523 15.664C35.4383 15.3171 35.3281 14.9598 35.0737 14.7189V14.721Z" fill="#1E1E54"/>
<path d="M18.13 13.7759C17.6332 13.3044 16.7937 13.2254 16.3068 13.7759C16.1666 13.9358 16.0143 14.0812 15.854 14.2183C15.5114 14.4738 15.1428 14.6836 14.7581 14.8643C14.1029 15.1365 13.4217 15.34 12.7425 15.5332C12.0914 15.7181 11.6266 16.4908 11.841 17.1783C12.0573 17.868 12.7305 18.3104 13.4278 18.1131C15.1227 17.6332 16.9079 17.0516 18.132 15.6661C18.5888 15.151 18.661 14.2786 18.132 13.7759H18.13Z" fill="#1E1E54"/>
<path d="M33.3167 34.0805C32.0645 31.5484 29.3357 30.5659 26.7672 30.3395C25.4669 30.2252 24.1306 30.2169 22.8403 30.4516C21.5019 30.6947 20.396 31.4051 19.4523 32.3979C17.583 34.3692 15.7799 37.2939 17.1563 40.1043C17.4969 40.7981 18.112 41.2821 18.8533 41.415C19.5826 41.5459 20.3058 41.3776 21.0191 41.2239C22.2613 40.958 23.4874 40.6112 24.6895 40.1874C27.4544 39.2132 30.0951 37.863 32.5073 36.1556C32.5133 36.1514 32.5193 36.1452 32.5273 36.139C32.6315 36.1078 32.7337 36.0704 32.8279 36.0123C33.493 35.6093 33.6553 34.7576 33.3167 34.0763V34.0805ZM22.6039 37.9046C22.097 38.0562 21.5841 38.1954 21.0692 38.32C20.8127 38.3823 20.5543 38.4405 20.2958 38.4966C20.1916 38.5194 20.0895 38.5402 19.9853 38.561C19.9372 38.5714 19.5425 38.6295 19.5725 38.6357C19.5545 38.6357 19.5385 38.6357 19.5204 38.6378C19.3962 38.2203 19.3902 37.8339 19.4824 37.4185C19.6887 36.4817 20.2197 35.709 20.8528 34.984C21.1914 34.5956 21.542 34.2113 21.9247 33.8686C22.1771 33.6401 22.6239 33.4199 22.9946 33.3119C23.2069 33.2496 23.4233 33.2018 23.6417 33.1665C23.6718 33.1624 23.6898 33.1582 23.6998 33.1561C23.7259 33.1561 23.7559 33.152 23.794 33.1478C23.8941 33.1395 23.9923 33.1291 24.0925 33.1229C24.6535 33.0855 25.2185 33.0917 25.7815 33.1104C26.3204 33.127 26.9676 33.1644 27.3843 33.2434C27.7069 33.3036 28.0274 33.3722 28.344 33.4635C28.4762 33.503 28.6064 33.5446 28.7347 33.5903C28.7747 33.6048 29.0452 33.719 29.0432 33.7128C29.2536 33.8146 29.4599 33.9268 29.6583 34.0535C29.7565 34.1158 29.8486 34.1823 29.9448 34.2466C29.9829 34.2736 30.0089 34.2903 30.0289 34.3027C30.045 34.3193 30.065 34.3401 30.0991 34.3734C30.1071 34.3817 30.1151 34.39 30.1231 34.3983C28.6605 35.3496 27.0778 36.2137 25.6032 36.8307C24.6234 37.242 23.6237 37.6013 22.6079 37.9046H22.6039Z" fill="#1E1E54"/>
</g>
<defs>
<clipPath id="clip0_1021_14327">
<rect width="50" height="50" fill="white"/>
</clipPath>
</defs>
</svg>
