<svg width="65" height="65" viewBox="0 0 65 65" fill="none" xmlns="http://www.w3.org/2000/svg">
<g clip-path="url(#clip0_486_4587)">
<path d="M2.35707 46.7213C7.57145 58.6622 20.5657 65.991 33.1641 64.8919C40.9231 64.2141 49.8048 61.1222 54.9775 56.6559C62.6818 50.0022 67.0966 37.8102 63.9998 24.5461C59.2412 4.16387 35.5108 -4.29091 17.9768 2.0873C2.64618 7.66351 -3.90435 32.3879 2.35707 46.7213Z" fill="#DFB6F2"/>
<path d="M27.486 33.4978C27.163 32.9254 26.5144 32.8201 25.9727 33.0874C23.4462 34.3268 20.1723 33.7922 18.0938 31.7912C17.052 30.7867 15.4814 32.4069 16.5285 33.4141C19.3623 36.1415 23.6077 36.7761 27.0901 35.0694C27.6292 34.8048 27.7699 34.0028 27.486 33.5005V33.4978Z" fill="#1E1E54"/>
<path d="M46.9659 34.1512C44.5566 34.5886 41.5926 35.1179 39.6079 33.4086C39.1495 33.0143 38.4931 32.9414 38.0425 33.4086C37.6493 33.8163 37.5815 34.6318 38.0425 35.0315C39.3032 36.117 40.7956 36.6544 42.413 36.8218C44.1321 37 45.8667 36.6706 47.5545 36.3627C48.1431 36.2547 48.4739 35.5067 48.328 34.9505C48.1561 34.3051 47.5571 34.0431 46.9659 34.1485V34.1512Z" fill="#1E1E54"/>
<path d="M35.4408 46.689C35.3913 46.5837 35.3314 46.4784 35.2506 46.3812C34.7115 45.725 33.7999 45.6116 33.0185 45.6143C32.2918 45.6197 31.5417 45.7439 30.8541 46.0005C29.4997 46.5054 28.2209 47.4532 27.7833 48.9384C27.3926 50.2562 27.9292 51.9358 29.1742 52.5407C30.664 53.2644 32.4976 52.5866 33.7452 51.6388C34.4094 51.1338 35.0579 50.5397 35.4252 49.7593C35.8158 48.9276 35.9825 47.915 35.6309 47.0347C35.5814 46.9105 35.5163 46.7944 35.4382 46.6863L35.4408 46.689ZM32.469 47.942C32.5158 47.9366 32.5549 47.9339 32.469 47.942V47.942ZM30.5754 48.6873C30.6015 48.663 30.6171 48.6495 30.5754 48.6873V48.6873ZM29.906 50.1509C29.906 50.1509 29.9217 50.1752 29.9321 50.2049C29.9191 50.1779 29.906 50.1509 29.906 50.1509ZM30.0727 50.4371C30.0727 50.4371 30.0649 50.4371 30.0623 50.4344C30.0571 50.4263 30.0519 50.4182 30.0467 50.4074C30.0571 50.4182 30.0649 50.4263 30.0753 50.4371H30.0727ZM30.3436 50.5424C30.3436 50.5424 30.3358 50.5424 30.3332 50.5397C30.3775 50.5505 30.4426 50.5694 30.3436 50.5424ZM33.5212 48.5847C33.4795 48.6765 33.4353 48.7683 33.3832 48.852C33.3545 48.9006 33.2139 49.0815 33.2399 49.0572C33.081 49.2382 32.9169 49.4137 32.732 49.573C32.719 49.5838 32.6799 49.6189 32.6513 49.6405C32.6409 49.6486 32.633 49.6567 32.6278 49.6567C32.521 49.735 32.4169 49.8133 32.3075 49.8863C32.0704 50.0456 31.8256 50.1806 31.573 50.3102C31.5678 50.3102 31.5678 50.3102 31.5626 50.3129C31.5 50.3318 31.4375 50.3588 31.375 50.3804C31.2448 50.4236 31.112 50.4587 30.9791 50.4884C30.9505 50.4938 30.9218 50.4992 30.8958 50.5046C30.8828 50.5073 30.8671 50.51 30.8515 50.5127C30.8437 50.5127 30.8359 50.5127 30.8307 50.5181C30.8359 50.5181 30.8359 50.5181 30.8411 50.5181C30.8333 50.5181 30.8255 50.5181 30.8202 50.5181C30.651 50.5316 30.4843 50.5262 30.3176 50.5289C30.2707 50.5154 30.2238 50.5019 30.1743 50.4911C30.1535 50.4749 30.13 50.4614 30.1066 50.4506C30.0831 50.4236 30.0545 50.3939 30.0285 50.375C30.0024 50.3291 29.9764 50.2832 29.9738 50.2805C29.9685 50.2724 29.9555 50.2454 29.9399 50.2184C29.9399 50.2184 29.9399 50.2157 29.9399 50.213C29.9217 50.1374 29.9086 50.0429 29.88 49.97C29.88 49.9403 29.8748 49.9106 29.8748 49.8808C29.8748 49.8322 29.8748 49.7809 29.8748 49.7323C29.8748 49.7539 29.8696 49.7701 29.8644 49.7674C29.8644 49.7674 29.867 49.7485 29.8748 49.7188C29.8774 49.5487 29.8826 49.6432 29.8748 49.7134C29.8956 49.6297 29.9399 49.4731 29.9425 49.4623C29.9425 49.4542 29.9425 49.4515 29.9451 49.4461C29.9659 49.4056 29.9972 49.3543 30.0024 49.3435C30.0441 49.2652 30.0962 49.1923 30.1431 49.1167C30.1925 49.068 30.2342 49.0086 30.2837 48.9573C30.3618 48.8736 30.4478 48.798 30.5311 48.7224C30.5702 48.6927 30.6093 48.6657 30.6509 48.636C30.8541 48.4956 31.0703 48.3849 31.2891 48.2687C31.3698 48.2363 31.4532 48.2039 31.5365 48.1742C31.6798 48.1229 31.823 48.0797 31.9689 48.0419C32.1147 48.0041 32.2632 47.9744 32.4116 47.9447C32.4221 47.9447 32.4429 47.9393 32.4637 47.9366C32.5315 47.9312 32.5992 47.9231 32.6669 47.9177C32.956 47.8961 33.2399 47.915 33.529 47.9285C33.5446 47.9312 33.5681 47.9339 33.5941 47.9393C33.5993 47.9609 33.6045 47.9798 33.6124 48.0014C33.6124 48.0068 33.6124 48.0068 33.615 48.0122C33.6176 48.0662 33.6124 48.158 33.6124 48.1661C33.6124 48.2093 33.6072 48.2498 33.6045 48.293C33.6019 48.3038 33.5967 48.3174 33.5915 48.3336C33.5759 48.3903 33.5186 48.5604 33.5212 48.582V48.5847Z" fill="#1E1E54"/>
<path d="M30.6978 47.1043C30.6978 47.1043 30.7056 47.1043 30.7082 47.1043C30.7238 47.1016 30.7368 47.099 30.7524 47.0964C30.7915 47.0886 30.8045 47.0834 30.6978 47.1069V47.1043Z" fill="#1E1E54"/>
<path d="M51.7114 29.1205C51.3207 29.2636 50.8702 29.3824 50.4925 29.4202C50.2919 29.4418 50.0888 29.4472 49.8856 29.4472C49.9351 29.3581 49.982 29.269 50.0367 29.1826C50.0836 29.107 50.1357 29.0368 50.1851 28.9639C50.2503 28.8694 50.1695 28.9801 50.2477 28.8802C50.344 28.756 50.4404 28.6371 50.542 28.5156C50.7582 28.2591 50.9821 28.008 51.1983 27.7514C51.4223 27.4814 51.6802 27.2006 51.8338 26.8819C52.0448 26.4472 52.0084 25.9395 51.6593 25.5939C51.3989 25.3373 51.0421 25.2536 50.6982 25.2023C49.8778 25.0808 49.0548 25.043 48.2265 25.1159C47.8957 25.1456 47.6118 25.3886 47.6118 25.7532C47.6118 26.0745 47.8931 26.4202 48.2265 26.3905C48.9896 26.3229 49.7814 26.3283 50.5316 26.4553C50.5654 26.4607 50.5993 26.4688 50.6305 26.4769C50.5915 26.5336 50.5524 26.5768 50.4795 26.6713C50.3753 26.8036 50.2659 26.9305 50.1565 27.0574C49.7033 27.584 49.2293 28.1025 48.8776 28.7101C48.7005 29.0152 48.5026 29.3851 48.4713 29.7416C48.4166 30.3654 48.9037 30.6489 49.4246 30.7002C50.3023 30.7866 51.2166 30.6516 52.0448 30.3492C52.3574 30.2357 52.5657 29.9144 52.4746 29.5661C52.3912 29.2528 52.0344 29.0071 51.7192 29.1205H51.7114ZM50.8155 26.5255C50.8207 26.5255 50.8259 26.5282 50.8311 26.5309C50.8259 26.5309 50.8233 26.5309 50.8181 26.5282L50.8155 26.5255ZM49.6877 29.8739C49.6877 29.8739 49.6903 29.8874 49.6929 29.8928C49.6668 29.9441 49.6642 29.936 49.6877 29.8739Z" fill="#1E1E54"/>
<path d="M57.8754 25.7257C57.3155 25.9284 56.6697 26.0967 56.1285 26.1503C55.841 26.1809 55.5499 26.1886 55.2587 26.1886C55.3296 26.0623 55.3968 25.9361 55.4752 25.8137C55.5424 25.7065 55.6171 25.6071 55.688 25.5038C55.7813 25.3699 55.6656 25.5267 55.7776 25.3852C55.9157 25.2092 56.0538 25.0409 56.1994 24.8688C56.5092 24.5053 56.8302 24.1496 57.14 23.7861C57.4611 23.4036 57.8306 23.0057 58.0508 22.5543C58.3532 21.9384 58.3009 21.2192 57.8007 20.7296C57.4275 20.3662 56.9161 20.2476 56.4233 20.1749C55.2475 20.0027 54.068 19.9492 52.8809 20.0525C52.4069 20.0945 52 20.4388 52 20.9553C52 21.4105 52.4031 21.9002 52.8809 21.8581C53.9746 21.7625 55.1094 21.7701 56.1844 21.9499C56.233 21.9576 56.2815 21.969 56.3263 21.9805C56.2703 22.0609 56.2143 22.1221 56.1098 22.2559C55.9605 22.4434 55.8037 22.6232 55.6469 22.803C54.9974 23.549 54.3181 24.2835 53.8141 25.1442C53.5603 25.5765 53.2766 26.1006 53.2318 26.6055C53.1534 27.4892 53.8515 27.8909 54.598 27.9636C55.856 28.086 57.1662 27.8947 58.3532 27.4663C58.8011 27.3056 59.0998 26.8504 58.9691 26.3569C58.8497 25.9131 58.3383 25.565 57.8866 25.7257H57.8754ZM56.5913 22.0494C56.5988 22.0494 56.6063 22.0532 56.6137 22.057C56.6063 22.057 56.6025 22.057 56.5951 22.0532L56.5913 22.0494ZM54.975 26.793C54.975 26.793 54.9788 26.8121 54.9825 26.8198C54.9452 26.8924 54.9414 26.881 54.975 26.793Z" fill="#1E1E54"/>
<path d="M33.797 38.6554C34.0887 37.397 33.5912 36.2656 33.3281 35.6607C33.0599 35.0423 32.6848 34.54 32.5806 34.4023C32.3853 34.1431 32.2889 34.0135 32.1509 33.9217C31.6638 33.5922 30.8512 33.6408 30.4605 34.2619C30.2938 34.5265 30.1636 34.9586 30.2677 35.3393C30.3537 35.6526 30.5881 35.8767 30.971 36.2521C31.1064 36.3871 31.2393 36.5302 31.3591 36.6841C31.3981 36.7327 31.432 36.7813 31.4685 36.8326C31.4737 36.8434 31.5466 36.9542 31.557 36.9758C31.6039 37.0622 31.6456 37.154 31.6925 37.2431C31.7055 37.2755 31.7185 37.3052 31.7315 37.3376C31.7315 37.3376 31.7315 37.3376 31.7315 37.3403C31.755 37.4186 31.7732 37.4969 31.7914 37.5779C31.8045 37.6346 31.8097 37.7183 31.8097 37.74C31.8097 37.7616 31.8097 37.7859 31.8097 37.8075C31.7992 37.8561 31.7862 37.9884 31.7836 37.9965C31.7784 38.0235 31.7758 38.0451 31.7706 38.0613C31.7445 38.1288 31.7133 38.1936 31.682 38.2584C31.6768 38.2665 31.6742 38.2719 31.6716 38.28C31.6638 38.2908 31.6586 38.2962 31.6508 38.3097C31.6508 38.3178 31.6456 38.3259 31.643 38.334C31.6195 38.3502 31.5726 38.3799 31.5414 38.4015C31.4945 38.415 31.4268 38.4393 31.4112 38.442C30.8408 38.5771 30.5673 39.3575 30.6845 39.9758C30.8147 40.6671 31.432 40.9723 31.9659 40.8481C32.8697 40.6347 33.5521 39.7004 33.7918 38.6635L33.797 38.6554ZM31.6456 38.334C31.5779 38.3934 31.6221 38.3745 31.6456 38.334V38.334ZM32.0962 34.1431C32.0779 34.1242 32.0649 34.1107 32.0649 34.108C32.0727 34.0999 32.0831 34.1161 32.0962 34.1431Z" fill="#1E1E54"/>
</g>
<defs>
<clipPath id="clip0_486_4587">
<rect width="65" height="65" fill="white"/>
</clipPath>
</defs>
</svg>
