<svg width="65" height="65" viewBox="0 0 65 65" fill="none" xmlns="http://www.w3.org/2000/svg">
<g clip-path="url(#clip0_486_4536)">
<path d="M2.35707 46.7213C7.57145 58.6622 20.5657 65.991 33.1641 64.8919C40.9231 64.2141 49.8048 61.1222 54.9775 56.6559C62.6818 50.0022 67.0966 37.8102 63.9998 24.5461C59.2412 4.16387 35.5108 -4.29091 17.9768 2.0873C2.64618 7.66351 -3.90435 32.3879 2.35707 46.7213Z" fill="#F9C991"/>
<path d="M30.8748 42.3467C31.6327 42.5006 32.513 42.1226 32.7006 41.272C32.8673 40.5105 32.4792 39.5465 31.6639 39.379C31.6431 39.3736 31.5441 39.3466 31.479 39.3304C31.4347 39.3034 31.367 39.2683 31.3332 39.2494C31.328 39.2386 31.3227 39.2305 31.3227 39.2197C31.3097 39.2035 31.3019 39.1954 31.2915 39.1846C31.2863 39.1765 31.2837 39.1711 31.2759 39.1603C31.2316 39.082 31.1873 39.001 31.1482 38.9173C31.143 38.8984 31.1378 38.8714 31.1326 38.839C31.1326 38.8309 31.1092 38.6662 31.0961 38.6067C31.0961 38.5797 31.0961 38.5527 31.0961 38.5257C31.0961 38.5014 31.1066 38.3988 31.1248 38.3259C31.1482 38.226 31.1769 38.1288 31.2108 38.0343C31.2108 38.0343 31.2108 38.0316 31.2108 38.0289C31.229 37.9911 31.2498 37.9506 31.2681 37.9128C31.3332 37.8047 31.3905 37.6913 31.4608 37.5833C31.4764 37.559 31.5832 37.4186 31.5884 37.4078C31.6405 37.3457 31.6926 37.2863 31.7447 37.2269C31.9166 37.0378 32.1041 36.8623 32.2969 36.6949C32.8412 36.2304 33.1746 35.9523 33.297 35.5689C33.4481 35.099 33.2606 34.567 33.0235 34.2403C32.4662 33.4734 31.3097 33.414 30.6143 33.8217C30.419 33.9351 30.2809 34.0945 30.0022 34.4131C29.8564 34.5805 29.3198 35.2016 28.9369 35.9631C28.5619 36.7084 27.8508 38.1045 28.2676 39.6545C28.6088 40.929 29.5829 42.0821 30.8695 42.344L30.8748 42.3467ZM31.3384 39.2575C31.3722 39.3061 31.4347 39.3304 31.3384 39.2575V39.2575ZM30.7419 34.0486C30.7419 34.0486 30.7237 34.0675 30.6976 34.0918C30.7133 34.0594 30.7315 34.0405 30.7419 34.0486Z" fill="#1E1E54"/>
<path d="M43.7624 41.7635C43.1321 42.3224 42.7414 42.6276 41.9861 43.1325C41.3011 43.5889 40.59 43.9993 39.8529 44.3612C39.668 44.453 39.4831 44.5394 39.2981 44.6231C39.022 44.75 39.1705 44.6798 39.2304 44.6528C39.1366 44.6933 39.0429 44.7311 38.9465 44.7716C38.5662 44.9256 38.1834 45.0687 37.7953 45.1983C36.9957 45.4656 36.1804 45.6817 35.3548 45.8437C34.4953 46.0138 34.1098 46.0624 33.1721 46.1191C32.3595 46.1677 31.5443 46.165 30.7316 46.111C30.3618 46.0867 29.9919 46.0489 29.6247 46.0003C29.5882 45.9949 29.5466 45.9895 29.5361 45.9868C29.4346 45.9706 29.3356 45.9544 29.234 45.9382C29.0074 45.8977 28.7834 45.8545 28.5594 45.8086C27.7624 45.6385 26.9732 45.417 26.2049 45.1362C24.7046 44.588 23.1263 43.6213 22.3188 42.2414C21.9047 41.5312 20.9879 41.2666 20.2899 41.6906C19.6049 42.1064 19.3392 43.0812 19.7585 43.7941C21.8162 47.3073 26.0278 48.6385 29.7471 49.0949C33.43 49.5459 37.1884 48.8816 40.5848 47.3775C42.5122 46.5242 44.2703 45.3549 45.8591 43.9426C46.4685 43.4026 46.3956 42.3224 45.8591 41.7689C45.2548 41.1424 44.3719 41.2261 43.7624 41.7689V41.7635Z" fill="#1E1E54"/>
<path d="M20.5631 33.5868C20.6881 33.9892 20.834 34.4239 21.0632 34.775C21.3914 35.2772 21.8315 35.6904 22.402 35.8713C23.1755 36.117 24.022 35.7876 24.4596 35.0855C24.7278 34.6508 24.7096 33.9136 24.6992 33.3951C24.6914 32.9387 24.6367 32.4878 24.5742 32.0368C24.4492 31.1349 24.16 30.287 23.7902 29.4634C23.6417 29.134 23.2302 28.8504 22.9046 28.7559C22.5765 28.6614 22.1571 28.7019 21.8446 28.872C21.2221 28.9098 20.6308 29.3041 20.472 29.9792C20.2766 30.8001 20.2323 31.6291 20.3417 32.4635C20.3912 32.8442 20.4511 33.2196 20.5683 33.5868H20.5631Z" fill="#1E1E54"/>
<path d="M40.173 33.3898C40.298 33.7922 40.4439 34.2269 40.6731 34.578C41.0012 35.0802 41.4414 35.4934 42.0118 35.6743C42.7854 35.92 43.6319 35.5906 44.0694 34.8885C44.3377 34.4537 44.3195 33.7165 44.3091 33.1981C44.3012 32.7417 44.2465 32.2908 44.184 31.8398C44.059 30.9379 43.7699 30.09 43.4001 29.2664C43.2516 28.9369 42.8401 28.6534 42.5145 28.5589C42.1863 28.4644 41.767 28.5049 41.4544 28.675C40.8319 28.7128 40.2407 29.1071 40.0818 29.7821C39.8865 30.603 39.8422 31.4321 39.9516 32.2665C40.0011 32.6472 40.061 33.0226 40.1782 33.3898H40.173Z" fill="#1E1E54"/>
</g>
<defs>
<clipPath id="clip0_486_4536">
<rect width="65" height="65" fill="white"/>
</clipPath>
</defs>
</svg>
