<svg width="160" height="160" viewBox="0 0 65 65" fill="none" xmlns="http://www.w3.org/2000/svg">
<g clip-path="url(#clip0_486_4571)">
<path d="M2.35707 46.7213C7.57145 58.6622 20.5657 65.991 33.1641 64.8919C40.9231 64.2141 49.8048 61.1222 54.9775 56.6559C62.6818 50.0022 67.0966 37.8102 63.9998 24.5461C59.2412 4.16387 35.5108 -4.29091 17.9768 2.0873C2.64618 7.66351 -3.90435 32.3879 2.35707 46.7213Z" fill="#F9BBC0"/>
<path d="M30.3591 39.0901C31.1171 39.244 31.9974 38.866 32.1849 38.0154C32.3516 37.2539 31.9636 36.2899 31.1483 36.1225C31.1275 36.117 31.0285 36.09 30.9634 36.0738C30.9191 36.0468 30.8514 36.0117 30.8175 35.9928C30.8123 35.982 30.8071 35.9739 30.8071 35.9631C30.7941 35.9469 30.7863 35.9388 30.7759 35.928C30.7707 35.9199 30.7681 35.9145 30.7602 35.9037C30.716 35.8254 30.6717 35.7444 30.6326 35.6607C30.6274 35.6418 30.6222 35.6148 30.617 35.5824C30.617 35.5743 30.5935 35.4096 30.5805 35.3502C30.5805 35.3231 30.5805 35.2961 30.5805 35.2691C30.5805 35.2448 30.5909 35.1422 30.6092 35.0693C30.6326 34.9694 30.6613 34.8722 30.6951 34.7777C30.6951 34.7777 30.6951 34.775 30.6951 34.7723C30.7134 34.7345 30.7342 34.694 30.7524 34.6562C30.8175 34.5481 30.8748 34.4347 30.9452 34.3267C30.9608 34.3024 31.0676 34.162 31.0728 34.1512C31.1249 34.0891 31.177 34.0297 31.2291 33.9703C31.401 33.7813 31.5885 33.6057 31.7812 33.4383C32.3256 32.9738 32.659 32.6957 32.7814 32.3123C32.9325 31.8424 32.7449 31.3104 32.5079 30.9837C31.9505 30.2168 30.7941 30.1574 30.0987 30.5651C29.9033 30.6786 29.7653 30.8379 29.4866 31.1565C29.3407 31.3239 28.8042 31.945 28.4213 32.7065C28.0463 33.4518 27.3352 34.8479 27.7519 36.3979C28.0931 37.6724 29.0673 38.8255 30.3539 39.0874L30.3591 39.0901ZM30.8227 36.0009C30.8566 36.0495 30.9191 36.0738 30.8227 36.0009V36.0009ZM30.2263 30.792C30.2263 30.792 30.2081 30.8109 30.182 30.8352C30.1976 30.8028 30.2159 30.7839 30.2263 30.792Z" fill="#1E1E54"/>
<path d="M23.6602 35.6499C24.0431 35.5203 24.3738 35.2989 24.6551 34.9884C24.9573 34.6967 25.1708 34.3538 25.2933 33.9568C25.486 33.5761 25.5746 33.1629 25.5589 32.7228C25.5225 32.4392 25.486 32.1557 25.4495 31.8695C25.3037 31.3267 25.038 30.8541 24.6551 30.4545C24.4468 30.2871 24.2384 30.1196 24.03 29.9522C23.5482 29.6633 23.0273 29.5175 22.4699 29.5148H22.2954C21.8708 29.4986 21.4723 29.5904 21.1051 29.7902C20.7222 29.9198 20.3914 30.1412 20.1101 30.4518C19.808 30.7434 19.5944 31.0864 19.472 31.4833C19.2793 31.8641 19.1907 32.2772 19.2063 32.7174C19.2428 33.0009 19.2793 33.2844 19.3157 33.5707C19.4616 34.1134 19.7273 34.586 20.1101 34.9857C20.3185 35.1531 20.5269 35.3205 20.7352 35.4879C21.2171 35.7769 21.738 35.9227 22.2954 35.9254H22.4699C22.8944 35.9416 23.2929 35.8498 23.6602 35.6499Z" fill="#1E1E54"/>
<path d="M41.3033 28.4858C39.7145 28.4858 38.1908 29.9359 38.2637 31.6371C38.3367 33.3438 39.5999 34.7884 41.3033 34.7884C42.8921 34.7884 44.4158 33.3384 44.3428 31.6371C44.2699 29.9305 43.0067 28.4858 41.3033 28.4858Z" fill="#1E1E54"/>
<path d="M46.479 22.6612C46.1742 22.3723 45.7237 22.0968 45.2939 22.1508C44.6714 22.2318 44.0489 22.2345 43.4264 22.167C42.8586 22.0698 42.3064 21.9132 41.7699 21.6972C41.4365 21.5378 41.1135 21.3623 40.801 21.1598C40.0561 20.6764 38.9205 20.9708 38.5064 21.7836C38.0714 22.6396 38.3136 23.6468 39.108 24.1626C40.9156 25.3372 43.1712 25.9016 45.2939 25.6262C45.7549 25.5668 46.1378 25.4722 46.479 25.1158C46.7707 24.8134 46.9895 24.3192 46.9713 23.8871C46.953 23.4362 46.8098 22.9717 46.479 22.6585V22.6612Z" fill="#1E1E54"/>
<path d="M26.747 21.4105C26.3631 21.2403 25.8463 21.1317 25.4594 21.3265C24.9 21.6114 24.3144 21.8224 23.7052 21.9673C23.1377 22.0658 22.5649 22.1032 21.987 22.0793C21.6195 22.0409 21.2564 21.9836 20.8941 21.8975C20.0303 21.6915 19.0589 22.3492 18.9409 23.2537C18.8177 24.206 19.3833 25.0739 20.3045 25.2938C22.4011 25.7953 24.7155 25.5716 26.6234 24.6012C27.0379 24.3908 27.367 24.1735 27.5691 23.7234C27.7427 23.3407 27.7833 22.8018 27.6214 22.4008C27.4532 21.982 27.1627 21.5924 26.7461 21.408L26.747 21.4105Z" fill="#1E1E54"/>
<path d="M39.6758 42.995C39.1236 42.1417 38.1885 41.9662 37.3316 42.4063C37.1571 42.4954 36.9826 42.5818 36.8081 42.6656C36.7482 42.6926 36.5633 42.7763 36.5268 42.7898C36.17 42.9437 35.8053 43.0841 35.4407 43.2137C34.7088 43.473 33.9587 43.6809 33.2008 43.8429C32.9846 43.8888 32.7658 43.9293 32.547 43.9698C32.5027 43.9779 32.4741 43.9833 32.4532 43.9887C32.4298 43.9887 32.3933 43.9941 32.3439 44.0022C31.9584 44.0481 31.5755 44.094 31.1874 44.1237C30.4139 44.1805 29.6403 44.1859 28.8667 44.14C28.7 44.1291 28.5359 44.1183 28.3693 44.1048C28.2599 44.0967 28.1479 44.0859 28.0385 44.0724C28.2182 44.0967 28.2052 44.094 27.9994 44.067C27.6165 44.013 27.2337 43.9536 26.8534 43.8753C26.5539 43.8132 26.2569 43.7403 25.9626 43.6512C25.835 43.6134 25.7074 43.5702 25.5824 43.527C25.5094 43.5027 25.4391 43.4757 25.3688 43.4487C25.0901 43.319 24.8166 43.1813 24.5561 43.0166C24.4962 42.9788 24.4363 42.9356 24.3764 42.8951C24.3947 42.9005 24.1472 42.7034 24.0977 42.6548C24.0639 42.6197 24.004 42.5737 23.9519 42.5251C23.9467 42.517 23.9284 42.49 23.8868 42.4306C23.8503 42.3793 23.8164 42.3253 23.7852 42.2713C23.7513 42.2173 23.7201 42.1633 23.6914 42.1066C23.6081 41.9338 23.6133 41.9581 23.7123 42.1795C23.6237 42.085 23.5924 41.8069 23.5638 41.6799C23.3528 40.7807 22.2823 40.1866 21.4437 40.4864C20.5347 40.8131 20.0684 41.7204 20.2924 42.6845C20.9644 45.5684 23.6602 46.8052 26.2986 47.3345C26.7466 49.5919 28.5985 51.4525 30.729 52.0763C33.4117 52.8621 36.0684 51.4066 37.5322 49.087C38.1599 48.0906 38.5376 46.8781 38.6053 45.6737C38.7746 45.5927 38.9439 45.509 39.1106 45.4253C39.9128 45.0149 40.1602 43.7376 39.6784 42.995H39.6758ZM23.9441 42.5143C23.8946 42.4657 23.8503 42.4171 23.8373 42.3739C23.8972 42.4522 23.9284 42.4954 23.9441 42.5143ZM34.4458 47.5262C34.477 47.483 34.5004 47.4533 34.5187 47.4263C34.4796 47.4884 34.4536 47.5289 34.4458 47.5262ZM34.5291 47.4074C34.5161 47.4236 34.5031 47.4425 34.4796 47.4722C34.4405 47.5235 34.4015 47.5721 34.3598 47.6207C34.2634 47.7341 34.1645 47.8448 34.0603 47.9474C34.0499 47.9582 33.9014 48.0906 33.8285 48.1608C33.7816 48.1959 33.7321 48.231 33.6826 48.2661C33.5628 48.3471 33.4404 48.4254 33.3128 48.4956C33.2581 48.5253 33.2034 48.555 33.1487 48.582C33.0341 48.6387 33.0757 48.6198 33.2711 48.5253C33.1799 48.6306 32.5757 48.7926 32.4428 48.7737C32.6903 48.7359 32.7163 48.7305 32.5236 48.7521C32.4819 48.7521 32.4402 48.7575 32.3985 48.7602C32.297 48.7656 31.987 48.8142 31.9037 48.7494C31.974 48.7575 32.0417 48.7656 32.112 48.7737C32.0313 48.7602 31.948 48.7467 31.8672 48.7305C31.7448 48.7035 31.625 48.6738 31.5078 48.636C31.4479 48.6171 31.388 48.5955 31.3281 48.5739C31.2213 48.5172 31.1093 48.4659 31.0051 48.4038C30.8957 48.3417 30.7941 48.2688 30.6847 48.2013C30.6769 48.1959 30.6743 48.1932 30.6665 48.1878C30.6248 48.1527 30.5805 48.1149 30.5389 48.077C30.4139 47.9663 30.2602 47.8367 30.1404 47.699C31.6797 47.6855 33.2086 47.4776 34.701 47.0995C34.6411 47.2075 34.5786 47.321 34.5291 47.4047V47.4074Z" fill="#1E1E54"/>
</g>
<defs>
<clipPath id="clip0_486_4571">
<rect width="160" height="160" fill="white"/>
</clipPath>
</defs>
</svg>
