<svg width="50" height="50" viewBox="0 0 50 50" fill="none" xmlns="http://www.w3.org/2000/svg">
<g clip-path="url(#clip0_1021_10146)">
<path d="M1.81302 35.9395C5.82408 45.1248 15.8197 50.7623 25.5107 49.9169C31.4792 49.3955 38.3113 47.0172 42.2903 43.5815C48.2167 38.4633 51.6127 29.0848 49.2305 18.8816C45.57 3.20303 27.3159 -3.30065 13.8282 1.60567C2.03541 5.89506 -3.00346 24.9138 1.81302 35.9395Z" fill="#CDF9C0"/>
<path d="M28.6943 27.3919C29.0149 26.1996 28.4679 25.1257 28.1794 24.5524C27.8849 23.9666 27.4741 23.4888 27.3599 23.3601C27.1456 23.115 27.0394 22.9924 26.8891 22.9052C26.3542 22.5915 25.4646 22.6372 25.0359 23.2271C24.8535 23.4785 24.7093 23.8877 24.8255 24.2491C24.9196 24.5441 25.1761 24.758 25.5948 25.1153C25.7451 25.242 25.8874 25.3791 26.0196 25.5245C26.0617 25.5702 26.1017 25.618 26.1398 25.6637C26.1438 25.672 26.2259 25.78 26.238 25.7987C26.2901 25.8818 26.3341 25.969 26.3862 26.0521C26.4003 26.0812 26.4163 26.1123 26.4303 26.1414C26.4303 26.1414 26.4303 26.1414 26.4303 26.1456C26.4543 26.2204 26.4784 26.2951 26.4964 26.3699C26.5104 26.4239 26.5165 26.5049 26.5185 26.5236C26.5185 26.5444 26.5185 26.5652 26.5185 26.5859C26.5084 26.6316 26.4924 26.7583 26.4904 26.7646C26.4864 26.7895 26.4804 26.8103 26.4784 26.8248C26.4483 26.8892 26.4163 26.9494 26.3802 27.0118C26.3742 27.0201 26.3722 27.0242 26.3682 27.0305C26.3602 27.0388 26.3542 27.0471 26.3442 27.0575C26.3442 27.0658 26.3401 27.0741 26.3361 27.0803C26.3101 27.0948 26.258 27.1239 26.2239 27.1426C26.1739 27.1551 26.0977 27.1779 26.0817 27.18C25.4546 27.3088 25.1561 28.0483 25.2843 28.6361C25.4285 29.2904 26.1037 29.5812 26.6888 29.4628C27.6785 29.2614 28.4278 28.3744 28.6903 27.394L28.6943 27.3919ZM26.3361 27.0865C26.262 27.1426 26.3101 27.1239 26.3361 27.0865V27.0865ZM26.829 23.1129C26.809 23.0942 26.795 23.0817 26.795 23.0796C26.803 23.0713 26.817 23.088 26.829 23.1129Z" fill="#1E1E54"/>
<path d="M41.3047 19.0769C41.1184 18.3727 40.4693 18.0964 39.8281 18.2065C37.3257 18.6386 34.7011 18.5223 32.2288 17.9095C31.5977 17.7537 30.9285 18.1151 30.7522 18.7798C30.5839 19.4134 30.9585 20.1549 31.5916 20.3107C32.8559 20.6244 34.1361 20.8113 35.4184 20.8882C35.3783 21.1935 35.3362 21.4989 35.2962 21.8021C35.2461 21.9683 35.2381 22.1324 35.2741 22.2986C35.2821 22.4648 35.3282 22.6185 35.4164 22.7618C35.5626 23.0194 35.8471 23.2666 36.1336 23.333C36.4402 23.4057 36.7868 23.3891 37.0593 23.2084C37.1394 23.144 37.2216 23.0796 37.3017 23.0131C37.45 22.8574 37.5541 22.6746 37.6102 22.4648C37.6804 21.9434 37.7505 21.4199 37.8206 20.8986C38.7042 20.8529 39.5857 20.7594 40.4673 20.6078C41.1084 20.4977 41.465 19.6772 41.3067 19.0769H41.3047Z" fill="#1E1E54"/>
<path d="M15.1389 20.614C16.2488 20.5725 17.3588 20.4665 18.4707 20.2941C19.1118 20.1944 19.4665 19.3552 19.3102 18.7632C19.1219 18.0508 18.4767 17.7953 17.8336 17.8929C15.4815 18.2564 12.8568 18.271 10.5007 17.9324C9.8816 17.843 9.18036 18.0882 9.02409 18.8027C8.89586 19.3885 9.19639 20.238 9.86357 20.3336C10.8233 20.4707 11.7809 20.5579 12.7386 20.6016C12.7987 21.1105 12.8608 21.6173 12.9209 22.1262C12.9149 22.2965 12.949 22.4565 13.0251 22.606C13.0732 22.7598 13.1554 22.8948 13.2736 23.0069C13.4819 23.223 13.8225 23.385 14.1231 23.3725C14.4336 23.358 14.7562 23.252 14.9726 23.0069C15.1729 22.7805 15.3632 22.4461 15.3252 22.1262C15.2651 21.6215 15.205 21.1167 15.1449 20.6119L15.1389 20.614Z" fill="#1E1E54"/>
<path d="M33.4168 35.7131C28.943 33.5965 23.6977 33.3825 19.1317 35.3496C18.5326 35.6072 18.1059 36.1743 18.2922 36.8805C18.4485 37.4663 19.1657 38.0105 19.7688 37.7508C23.7498 36.0351 28.3038 36.0185 32.2027 37.863C32.7917 38.1413 33.495 38.0375 33.8456 37.4164C34.1481 36.8805 34.0079 35.9935 33.4148 35.7131H33.4168Z" fill="#1E1E54"/>
</g>
<defs>
<clipPath id="clip0_1021_10146">
<rect width="50" height="50" fill="white"/>
</clipPath>
</defs>
</svg>
