<svg width="50" height="50" viewBox="0 0 50 50" fill="none" xmlns="http://www.w3.org/2000/svg">
<g clip-path="url(#clip0_1271_7389)">
<path d="M1.81351 35.9396C5.82456 45.1249 15.8202 50.7624 25.5112 49.917C31.4797 49.3956 38.3117 47.0172 42.2907 43.5815C48.2172 38.4634 51.6132 29.0849 49.231 18.8817C45.5705 3.20309 27.3164 -3.30059 13.8287 1.60573C2.0359 5.89512 -3.00297 24.9139 1.81351 35.9396Z" fill="#D4DFFF"/>
<path d="M23.1032 28.7498C23.6862 28.8682 24.3634 28.5774 24.5077 27.923C24.6359 27.3373 24.3374 26.5957 23.7102 26.4669C23.6942 26.4628 23.6181 26.442 23.568 26.4295C23.5339 26.4088 23.4818 26.3818 23.4558 26.3672C23.4518 26.3589 23.4478 26.3527 23.4478 26.3444C23.4378 26.3319 23.4318 26.3257 23.4237 26.3174C23.4197 26.3111 23.4177 26.307 23.4117 26.2987C23.3777 26.2384 23.3436 26.1761 23.3136 26.1117C23.3095 26.0972 23.3055 26.0764 23.3015 26.0515C23.3015 26.0453 23.2835 25.9186 23.2735 25.8729C23.2735 25.8521 23.2735 25.8313 23.2735 25.8105C23.2735 25.7919 23.2815 25.7129 23.2955 25.6568C23.3136 25.58 23.3356 25.5052 23.3616 25.4325C23.3616 25.4325 23.3616 25.4304 23.3616 25.4283C23.3757 25.3993 23.3917 25.3681 23.4057 25.339C23.4558 25.2559 23.4999 25.1687 23.554 25.0856C23.566 25.0669 23.6481 24.9589 23.6521 24.9506C23.6922 24.9028 23.7323 24.8571 23.7724 24.8114C23.9046 24.666 24.0488 24.531 24.1971 24.4022C24.6158 24.0449 24.8723 23.831 24.9665 23.536C25.0827 23.1746 24.9384 22.7654 24.7561 22.514C24.3273 21.9241 23.4378 21.8784 22.9028 22.1921C22.7526 22.2793 22.6464 22.4019 22.432 22.647C22.3198 22.7758 21.9071 23.2535 21.6126 23.8393C21.324 24.4126 20.7771 25.4865 21.0977 26.6788C21.3601 27.6592 22.1094 28.5462 23.0992 28.7477L23.1032 28.7498ZM23.4598 26.3735C23.4859 26.4109 23.5339 26.4295 23.4598 26.3735V26.3735ZM23.001 22.3666C23.001 22.3666 22.987 22.3811 22.9669 22.3998C22.979 22.3749 22.993 22.3603 23.001 22.3666Z" fill="#1E1E54"/>
<path d="M17.5206 24.7125C17.8152 24.6128 18.0696 24.4424 18.286 24.2036C18.5184 23.9792 18.6827 23.7154 18.7769 23.4101C18.9251 23.1172 18.9932 22.7994 18.9812 22.4608C18.9532 22.2427 18.9251 22.0246 18.8971 21.8044C18.7849 21.3869 18.5805 21.0234 18.286 20.716C18.1257 20.5872 17.9654 20.4584 17.8051 20.3296C17.4345 20.1073 17.0338 19.9952 16.605 19.9931H16.4708C16.1442 19.9806 15.8377 20.0513 15.5552 20.205C15.2607 20.3047 15.0062 20.475 14.7898 20.7139C14.5574 20.9382 14.3931 21.202 14.299 21.5074C14.1507 21.8003 14.0826 22.1181 14.0946 22.4566C14.1227 22.6748 14.1507 22.8929 14.1788 23.113C14.291 23.5306 14.4953 23.8941 14.7898 24.2015C14.9501 24.3303 15.1104 24.4591 15.2707 24.5878C15.6413 24.8101 16.042 24.9223 16.4708 24.9243H16.605C16.9316 24.9368 17.2381 24.8662 17.5206 24.7125Z" fill="#1E1E54"/>
<path d="M31.0949 19.2017C29.8728 19.2017 28.7007 20.3171 28.7568 21.6257C28.8129 22.9385 29.7846 24.0498 31.0949 24.0498C32.3171 24.0498 33.4891 22.9344 33.433 21.6257C33.3769 20.313 32.4052 19.2017 31.0949 19.2017Z" fill="#1E1E54"/>
<path d="M35.0737 14.721C34.8393 14.4987 34.4927 14.2868 34.1621 14.3284C33.6832 14.3907 33.2044 14.3928 32.7255 14.3408C32.2888 14.2661 31.864 14.1456 31.4513 13.9794C31.1949 13.8569 30.9464 13.7218 30.706 13.5661C30.133 13.1942 29.2594 13.4207 28.9409 14.0459C28.6063 14.7044 28.7926 15.4791 29.4037 15.8759C30.7941 16.7795 32.5292 17.2136 34.1621 17.0017C34.5167 16.956 34.8112 16.8833 35.0737 16.6091C35.2981 16.3765 35.4664 15.9964 35.4523 15.664C35.4383 15.3171 35.3281 14.9598 35.0737 14.7189V14.721Z" fill="#1E1E54"/>
<path d="M18.13 13.7759C17.6332 13.3044 16.7937 13.2254 16.3068 13.7759C16.1666 13.9358 16.0143 14.0812 15.854 14.2183C15.5114 14.4738 15.1428 14.6836 14.7581 14.8643C14.1029 15.1365 13.4217 15.34 12.7425 15.5332C12.0914 15.7181 11.6266 16.4908 11.841 17.1783C12.0573 17.868 12.7305 18.3104 13.4278 18.1131C15.1227 17.6332 16.9079 17.0516 18.132 15.6661C18.5888 15.151 18.661 14.2786 18.132 13.7759H18.13Z" fill="#1E1E54"/>
<path d="M38.3262 33.4318C37.636 33.2347 37.0812 33.6775 36.8364 34.3067C36.1254 36.1483 34.0729 37.3392 32.1013 36.8882C30.9735 36.629 30.2755 36.0106 29.4576 35.241C28.5486 34.3877 27.5771 33.6046 26.3139 33.4777C24.91 33.34 23.6234 34.2014 22.5086 34.9737C21.4355 35.719 20.3624 36.5831 19.0705 36.8585C18.0365 37.08 17.2604 36.7154 16.5649 36.0241C15.7471 35.214 15.0465 34.2716 14.0567 33.6721C11.736 32.2653 8.61313 33.1618 7.19364 35.4787C6.35756 36.845 8.44905 38.1061 9.28251 36.7451C9.47004 36.4373 9.75134 36.1537 10.0483 35.9647C10.2696 35.8243 10.465 35.7325 10.5926 35.6893C10.676 35.6596 10.7593 35.6353 10.8453 35.611C10.8948 35.5975 11.3297 35.5111 11.1708 35.5327C11.7126 35.4625 11.9522 35.4922 12.4054 35.638C12.7544 35.7514 13.1243 36.0106 13.4577 36.332C14.3042 37.1421 15.0048 38.1088 15.9971 38.7434C17.2083 39.5184 18.6929 39.5913 20.042 39.197C21.3496 38.8109 22.4669 38.0278 23.5817 37.2501C24.126 36.8693 24.6834 36.4589 25.2877 36.1781C25.4987 36.0808 25.7226 35.9944 25.9545 35.9755C26.129 35.962 26.3868 36.016 26.4754 36.0538C27.3661 36.4373 27.9991 37.3095 28.7856 37.9522C29.89 38.8541 31.174 39.3672 32.5779 39.4752C35.5159 39.702 38.11 37.7389 39.1753 34.9764C39.4175 34.3472 38.9097 33.5992 38.3314 33.4318H38.3262Z" fill="#1E1E54"/>
</g>
<defs>
<clipPath id="clip0_1271_7389">
<rect width="50" height="50" fill="white"/>
</clipPath>
</defs>
</svg>
