<svg width="71" height="70" viewBox="0 0 71 70" fill="none" xmlns="http://www.w3.org/2000/svg">
<path d="M70.8516 35.1934C70.8516 54.4165 54.9909 70 35.4258 70C15.8607 70 0 54.4165 0 35.1934C0 15.9702 15.8607 0.386719 35.4258 0.386719C54.9909 0.386719 70.8516 15.9702 70.8516 35.1934ZM8.37486 35.1934C8.37486 49.8721 20.486 61.7715 35.4258 61.7715C50.3656 61.7715 62.4767 49.8721 62.4767 35.1934C62.4767 20.5147 50.3656 8.61521 35.4258 8.61521C20.486 8.61521 8.37486 20.5147 8.37486 35.1934Z" fill="white"/>
<path d="M35.4258 0.386719C40.078 0.386719 44.6846 1.28702 48.9826 3.03622C53.2807 4.78542 57.186 7.34925 60.4756 10.5814C63.7652 13.8134 66.3746 17.6505 68.1549 21.8734C69.9352 26.0964 70.8516 30.6225 70.8516 35.1934L62.4767 35.1934C62.4767 31.7031 61.777 28.247 60.4176 25.0223C59.0581 21.7977 57.0656 18.8678 54.5537 16.3998C52.0418 13.9318 49.0597 11.974 45.7777 10.6384C42.4958 9.30268 38.9782 8.61521 35.4258 8.61521V0.386719Z" fill="#9EBDFF"/>
</svg>
